# xmcd CD database file
#
# Track frame offsets:
#	150
#	13155
#	25858
#	50955
#	62600
#	74678
#	87733
#	101978
#	114763
#	127780
#	140193
#	151070
#	164513
#	179228
#	193048
#	206978
#	221018
#	233738
#	251930
#	264895
#	277920
#	291195
#	304633
#
# Disc length: 4255 seconds
#
# Revision: 1
# Processed by: cddbd v1.5.2PL0 Copyright (c) Steve Scherf et al.
# Submitted via: CDex 1.51
#
DISCID=69109d17
DTITLE=Fats Navarro - Vol. 076 - Fats Blows
DYEAR=1960
DGENRE=Jazz
TTITLE0=Dance of the Infidels
TTITLE1=52nd St. Theme
TTITLE2=Double Talk
TTITLE3=Move
TTITLE4=Hollerin` and Screamin`
TTITLE5=The Tadd Walk
TTITLE6=Jumpin' for Jane
TTITLE7=Lady Bird
TTITLE8=Goin` to Minton`s
TTITLE9=Nostalgia
TTITLE10=Eb Pob
TTITLE11=Our Delight
TTITLE12=Bouncing with Bud
TTITLE13=Wail
TTITLE14=Symphonette
TTITLE15=Boperation
TTITLE16=Fats Blows
TTITLE17=Stop
TTITLE18=Sid`s Delight
TTITLE19=Jahbero
TTITLE20=The Skink
TTITLE21=The Squirrel
TTITLE22=Groovin` High
EXTD=YEAR: 1960
EXTT0=
EXTT1=
EXTT2=
EXTT3=
EXTT4=
EXTT5=
EXTT6=
EXTT7=
EXTT8=
EXTT9=
EXTT10=
EXTT11=
EXTT12=
EXTT13=
EXTT14=
EXTT15=
EXTT16=
EXTT17=
EXTT18=
EXTT19=
EXTT20=
EXTT21=
EXTT22=
PLAYORDER=
